<svg version="1.1" xmlns="http://www.w3.org/2000/svg" xmlns:xlink="http://www.w3.org/1999/xlink" width="359.90000000000003" height="258.6"><defs><linearGradient id="vsTvNXUTfcDH" x1="2625.451959524248px" x2="1825.829717540527px" y1="1213.6599616405556px" y2="1697.814624168554px" gradientUnits="userSpaceOnUse"><stop offset="0" stop-color="rgb(211,211,211)" stop-opacity="1"/><stop offset="1" stop-color="rgb(211,211,211)" stop-opacity="1"/></linearGradient><linearGradient id="weNJXWZzeIkx" x1="2348.951959524248px" x2="2102.329717540527px" y1="1305.1599623558113px" y2="1606.3146234532983px" gradientUnits="userSpaceOnUse"><stop offset="0" stop-color="rgb(211,211,211)" stop-opacity="1"/><stop offset="1" stop-color="rgb(211,211,211)" stop-opacity="1"/></linearGradient><linearGradient id="pKqaQHcaPxnT" x1="2348.951959524248px" x2="2098.7519588089904px" y1="106.7599580642767px" y2="106.7599580642767px" gradientUnits="userSpaceOnUse"><stop offset="0" stop-color="rgb(211,211,211)" stop-opacity="1"/><stop offset="1" stop-color="rgb(211,211,211)" stop-opacity="1"/></linearGradient><linearGradient id="NhDpGpnEEmtO" x1="2348.951959524248px" x2="2102.329717540527px" y1="1438.159963071067px" y2="1340.3146220227868px" gradientUnits="userSpaceOnUse"><stop offset="0" stop-color="rgb(211,211,211)" stop-opacity="1"/><stop offset="1" stop-color="rgb(211,211,211)" stop-opacity="1"/></linearGradient><linearGradient id="kSSurKpJybUx" x1="2348.951959524248px" x2="2102.329717540527px" y1="1571.1599637863228px" y2="1473.3146227380425px" gradientUnits="userSpaceOnUse"><stop offset="0" stop-color="rgb(211,211,211)" stop-opacity="1"/><stop offset="1" stop-color="rgb(211,211,211)" stop-opacity="1"/></linearGradient><linearGradient id="zhItUsuUDRNn" x1="2348.951959524248px" x2="2098.7519588089904px" y1="239.75995877953244px" y2="106.7599580642767px" gradientUnits="userSpaceOnUse"><stop offset="0" stop-color="rgb(211,211,211)" stop-opacity="1"/><stop offset="1" stop-color="rgb(211,211,211)" stop-opacity="1"/></linearGradient><linearGradient id="ZVprBXSlJXpR" x1="2625.451959524248px" x2="1825.829717540527px" y1="747.459960210044px" y2="1564.8146234532983px" gradientUnits="userSpaceOnUse"><stop offset="0" stop-color="rgb(211,211,211)" stop-opacity="1"/><stop offset="1" stop-color="rgb(211,211,211)" stop-opacity="1"/></linearGradient><linearGradient id="giiQiowxrzaW" x1="2625.451959524248px" x2="1825.829717540527px" y1="880.4599609252997px" y2="1298.8146220227868px" gradientUnits="userSpaceOnUse"><stop offset="0" stop-color="rgb(211,211,211)" stop-opacity="1"/><stop offset="1" stop-color="rgb(211,211,211)" stop-opacity="1"/></linearGradient><linearGradient id="owARyoqSdQtJ" x1="1545.7519588089904px" x2="492.55195737847885px" y1="838.9599609252997px" y2="-93.2400419357233px" gradientUnits="userSpaceOnUse"><stop offset="0" stop-color="rgb(211,211,211)" stop-opacity="1"/><stop offset="1" stop-color="rgb(211,211,211)" stop-opacity="1"/></linearGradient><linearGradient id="TWapJErplcSk" x1="1822.2519588089904px" x2="1822.2519588089904px" y1="797.4599609252997px" y2="148.2599580642767px" gradientUnits="userSpaceOnUse"><stop offset="0" stop-color="rgb(211,211,211)" stop-opacity="1"/><stop offset="1" stop-color="rgb(211,211,211)" stop-opacity="1"/></linearGradient><linearGradient id="dLonTBkWoQIM" x1="2098.7519588089904px" x2="2348.951959524248px" y1="838.9599609252997px" y2="838.9599609252997px" gradientUnits="userSpaceOnUse"><stop offset="0" stop-color="rgb(211,211,211)" stop-opacity="1"/><stop offset="1" stop-color="rgb(211,211,211)" stop-opacity="1"/></linearGradient><linearGradient id="rUKtGCXqGFET" x1="1822.2519588089904px" x2="1825.829717540527px" y1="880.4599609252997px" y2="1298.8146220227868px" gradientUnits="userSpaceOnUse"><stop offset="0" stop-color="rgb(211,211,211)" stop-opacity="1"/><stop offset="1" stop-color="rgb(211,211,211)" stop-opacity="1"/></linearGradient><linearGradient id="OEgAEvbmgPUv" x1="1822.2519588089904px" x2="1825.829717540527px" y1="747.4599602100441px" y2="1697.814624168554px" gradientUnits="userSpaceOnUse"><stop offset="0" stop-color="rgb(211,211,211)" stop-opacity="1"/><stop offset="1" stop-color="rgb(211,211,211)" stop-opacity="1"/></linearGradient><linearGradient id="UWOzItiAiaNI" x1="1545.7519588089904px" x2="492.55195737847885px" y1="705.959960210044px" y2="-93.2400419357233px" gradientUnits="userSpaceOnUse"><stop offset="0" stop-color="rgb(211,211,211)" stop-opacity="1"/><stop offset="1" stop-color="rgb(211,211,211)" stop-opacity="1"/></linearGradient><linearGradient id="HfKgOSOhDnnz" x1="1822.2519588089904px" x2="1822.2519588089904px" y1="664.459960210044px" y2="148.2599580642767px" gradientUnits="userSpaceOnUse"><stop offset="0" stop-color="rgb(211,211,211)" stop-opacity="1"/><stop offset="1" stop-color="rgb(211,211,211)" stop-opacity="1"/></linearGradient><linearGradient id="OXnMRncpKeNa" x1="2098.7519588089904px" x2="2348.951959524248px" y1="705.959960210044px" y2="572.9599594947882px" gradientUnits="userSpaceOnUse"><stop offset="0" stop-color="rgb(211,211,211)" stop-opacity="1"/><stop offset="1" stop-color="rgb(211,211,211)" stop-opacity="1"/></linearGradient><linearGradient id="sKxluyQkuTTJ" x1="2348.951959524248px" x2="2102.329717540527px" y1="1837.159965216834px" y2="1739.314624168554px" gradientUnits="userSpaceOnUse"><stop offset="0" stop-color="rgb(211,211,211)" stop-opacity="1"/><stop offset="1" stop-color="rgb(211,211,211)" stop-opacity="1"/></linearGradient><linearGradient id="BBlUBSuSELJG" x1="1545.7519588089904px" x2="492.55195737847885px" y1="106.7599580642767px" y2="-93.2400419357233px" gradientUnits="userSpaceOnUse"><stop offset="0" stop-color="rgb(211,211,211)" stop-opacity="1"/><stop offset="1" stop-color="rgb(211,211,211)" stop-opacity="1"/></linearGradient><linearGradient id="RCHkfCDVaLRk" x1="1822.2519588089904px" x2="1825.829717540527px" y1="614.4599594947883px" y2="1564.8146234532983px" gradientUnits="userSpaceOnUse"><stop offset="0" stop-color="rgb(211,211,211)" stop-opacity="1"/><stop offset="1" stop-color="rgb(211,211,211)" stop-opacity="1"/></linearGradient><linearGradient id="ppgUEFxrueGa" x1="1545.7519588089904px" x2="492.55195737847885px" y1="572.9599594947882px" y2="-93.2400419357233px" gradientUnits="userSpaceOnUse"><stop offset="0" stop-color="rgb(211,211,211)" stop-opacity="1"/><stop offset="1" stop-color="rgb(211,211,211)" stop-opacity="1"/></linearGradient><linearGradient id="CnRFMFwHHCzh" x1="1822.2519588089904px" x2="1822.2519588089904px" y1="531.4599594947882px" y2="148.2599580642767px" gradientUnits="userSpaceOnUse"><stop offset="0" stop-color="rgb(211,211,211)" stop-opacity="1"/><stop offset="1" stop-color="rgb(211,211,211)" stop-opacity="1"/></linearGradient><linearGradient id="HuqHAQnAUbMv" x1="2098.7519588089904px" x2="2348.951959524248px" y1="572.9599594947882px" y2="705.959960210044px" gradientUnits="userSpaceOnUse"><stop offset="0" stop-color="rgb(211,211,211)" stop-opacity="1"/><stop offset="1" stop-color="rgb(211,211,211)" stop-opacity="1"/></linearGradient><linearGradient id="piGcLPgoTMJi" x1="2625.451959524248px" x2="1825.829717540527px" y1="614.4599594947882px" y2="1697.814624168554px" gradientUnits="userSpaceOnUse"><stop offset="0" stop-color="rgb(211,211,211)" stop-opacity="1"/><stop offset="1" stop-color="rgb(211,211,211)" stop-opacity="1"/></linearGradient><linearGradient id="biTHlqMTdJLA" x1="742.5519580937346px" x2="492.55195737847885px" y1="106.7599580642767px" y2="-93.2400419357233px" gradientUnits="userSpaceOnUse"><stop offset="0" stop-color="rgb(211,211,211)" stop-opacity="1"/><stop offset="1" stop-color="rgb(211,211,211)" stop-opacity="1"/></linearGradient></defs><g transform="translate(26.344804262152138,34.37400419357232) scale(0.1,0.1)"><path fill="rgb(244,236,255)" stroke="rgb(255,255,255)" paint-order="fill stroke markers" d=" M 1536.0019584513634 -341.7400419357232 L 3325.451959524248 -341.7400419357232 L 3325.451959524248 -341.7400419357232 A 8 8 0 0 1 3333.451959524248 -333.7400419357232 L 3333.451959524248 2232.1599652168343 L 3333.451959524248 2232.1599652168343 A 8 8 0 0 1 3325.451959524248 2240.1599652168343 L -253.44804262152138 2240.1599652168343 L -253.44804262152138 2240.1599652168343 A 8 8 0 0 1 -261.4480426215214 2232.1599652168343 L -261.4480426215214 -333.7400419357232 L -261.4480426215214 -333.7400419357232 A 8 8 0 0 1 -253.44804262152138 -341.7400419357232 L 1536.0019584513634 -341.7400419357232 Z" fill-opacity="1" stroke-opacity="1" stroke-miterlimit="10" stroke-width="2"/><text fill="rgb(0,0,0)" stroke="none" font-family="Avenir, Helvetica, Arial, sans-serif" font-size="32px" font-style="normal" font-weight="bold" text-decoration="normal" x="1536.0019584513634" y="-266.7400419357232" text-anchor="middle" dominant-baseline="text-after-edge" fill-opacity="1">.</text><path fill="rgb(255,255,255)" stroke="rgb(211,211,211)" paint-order="fill stroke markers" d=" M 1857.2519588089913 -140.24004193572318 L 3123.951959524248 -140.24004193572318 L 3123.951959524248 -140.24004193572318 A 8 8 0 0 1 3131.951959524248 -132.24004193572318 L 3131.951959524248 2030.6599652168343 L 3131.951959524248 2030.6599652168343 A 8 8 0 0 1 3123.951959524248 2038.6599652168343 L 590.5519580937344 2038.6599652168343 L 590.5519580937344 2038.6599652168343 A 8 8 0 0 1 582.5519580937344 2030.6599652168343 L 582.5519580937344 -132.24004193572318 L 582.5519580937344 -132.24004193572318 A 8 8 0 0 1 590.5519580937344 -140.24004193572318 L 1857.2519588089913 -140.24004193572318 Z" fill-opacity="1" stroke-opacity="1" stroke-miterlimit="10"/><text fill="rgb(0,0,0)" stroke="none" font-family="Avenir, Helvetica, Arial, sans-serif" font-size="32px" font-style="normal" font-weight="bold" text-decoration="normal" x="1857.2519588089913" y="-65.24004193572318" text-anchor="middle" dominant-baseline="text-after-edge" fill-opacity="1">unknown file</text><path fill="rgb(255,255,255)" stroke="rgb(0,0,0)" paint-order="fill stroke markers" d=" M 1822.2519588089904 474.9599594947882 L 2147.2519588089904 474.9599594947882 L 2147.2519588089904 474.9599594947882 A 8 8 0 0 1 2155.2519588089904 482.9599594947882 L 2155.2519588089904 928.9599609252997 L 2155.2519588089904 928.9599609252997 A 8 8 0 0 1 2147.2519588089904 936.9599609252997 L 1497.2519588089904 936.9599609252997 L 1497.2519588089904 936.9599609252997 A 8 8 0 0 1 1489.2519588089904 928.9599609252997 L 1489.2519588089904 482.9599594947882 L 1489.2519588089904 482.9599594947882 A 8 8 0 0 1 1497.2519588089904 474.9599594947882 L 1822.2519588089904 474.9599594947882 Z" fill-opacity="1" stroke-opacity="1" stroke-miterlimit="10" stroke-width="5"/><rect fill="rgb(255,255,255)" stroke="none" x="1663.2519588089904" y="425.9599594947882" width="318" height="96" fill-opacity="1"/><text fill="rgb(0,0,0)" stroke="none" font-family="Avenir, Helvetica, Arial, sans-serif" font-size="32px" font-style="normal" font-weight="bold" text-decoration="normal" x="1822.2519588089904" y="489.9599594947882" text-anchor="middle" dominant-baseline="text-after-edge" fill-opacity="1">yandex_function</text><path fill="rgb(255,255,255)" stroke="rgb(0,0,0)" paint-order="fill stroke markers" d=" M 2625.451959524248 474.9599594947882 L 2950.451959524248 474.9599594947882 L 2950.451959524248 474.9599594947882 A 8 8 0 0 1 2958.451959524248 482.9599594947882 L 2958.451959524248 928.9599609252997 L 2958.451959524248 928.9599609252997 A 8 8 0 0 1 2950.451959524248 936.9599609252997 L 2300.451959524248 936.9599609252997 L 2300.451959524248 936.9599609252997 A 8 8 0 0 1 2292.451959524248 928.9599609252997 L 2292.451959524248 482.9599594947882 L 2292.451959524248 482.9599594947882 A 8 8 0 0 1 2300.451959524248 474.9599594947882 L 2625.451959524248 474.9599594947882 Z" fill-opacity="1" stroke-opacity="1" stroke-miterlimit="10" stroke-width="5"/><rect fill="rgb(255,255,255)" stroke="none" x="2218.951959524248" y="425.9599594947882" width="813" height="96" fill-opacity="1"/><text fill="rgb(0,0,0)" stroke="none" font-family="Avenir, Helvetica, Arial, sans-serif" font-size="32px" font-style="normal" font-weight="bold" text-decoration="normal" x="2625.451959524248" y="489.9599594947882" text-anchor="middle" dominant-baseline="text-after-edge" fill-opacity="1">yandex_iam_service_account_static_access_key</text><path fill="rgb(255,255,255)" stroke="rgb(0,0,0)" paint-order="fill stroke markers" d=" M 1019.0519580937346 8.759958064276702 L 1344.0519580937346 8.759958064276702 L 1344.0519580937346 8.759958064276702 A 8 8 0 0 1 1352.0519580937346 16.759958064276702 L 1352.0519580937346 196.7599580642767 L 1352.0519580937346 196.7599580642767 A 8 8 0 0 1 1344.0519580937346 204.7599580642767 L 694.0519580937346 204.7599580642767 L 694.0519580937346 204.7599580642767 A 8 8 0 0 1 686.0519580937346 196.7599580642767 L 686.0519580937346 16.759958064276702 L 686.0519580937346 16.759958064276702 A 8 8 0 0 1 694.0519580937346 8.759958064276702 L 1019.0519580937346 8.759958064276702 Z" fill-opacity="1" stroke-opacity="1" stroke-miterlimit="10" stroke-width="5"/><rect fill="rgb(255,255,255)" stroke="none" x="804.5519580937346" y="-40.2400419357233" width="429" height="96" fill-opacity="1"/><text fill="rgb(0,0,0)" stroke="none" font-family="Avenir, Helvetica, Arial, sans-serif" font-size="32px" font-style="normal" font-weight="bold" text-decoration="normal" x="1019.0519580937346" y="23.759958064276702" text-anchor="middle" dominant-baseline="text-after-edge" fill-opacity="1">yandex_storage_bucket</text><path fill="rgb(255,255,255)" stroke="rgb(0,0,0)" paint-order="fill stroke markers" d=" M 2625.451959524248 1074.1599616405556 L 2950.451959524248 1074.1599616405556 L 2950.451959524248 1074.1599616405556 A 8 8 0 0 1 2958.451959524248 1082.1599616405556 L 2958.451959524248 1927.1599652168343 L 2958.451959524248 1927.1599652168343 A 8 8 0 0 1 2950.451959524248 1935.1599652168343 L 2300.451959524248 1935.1599652168343 L 2300.451959524248 1935.1599652168343 A 8 8 0 0 1 2292.451959524248 1927.1599652168343 L 2292.451959524248 1082.1599616405556 L 2292.451959524248 1082.1599616405556 A 8 8 0 0 1 2300.451959524248 1074.1599616405556 L 2625.451959524248 1074.1599616405556 Z" fill-opacity="1" stroke-opacity="1" stroke-miterlimit="10" stroke-width="5"/><rect fill="rgb(255,255,255)" stroke="none" x="2233.951959524248" y="1025.1599616405556" width="783" height="96" fill-opacity="1"/><text fill="rgb(0,0,0)" stroke="none" font-family="Avenir, Helvetica, Arial, sans-serif" font-size="32px" font-style="normal" font-weight="bold" text-decoration="normal" x="2625.451959524248" y="1089.1599616405556" text-anchor="middle" dominant-baseline="text-after-edge" fill-opacity="1">yandex_resourcemanager_folder_iam_member</text><path fill="rgb(255,255,255)" stroke="rgb(0,0,0)" paint-order="fill stroke markers" d=" M 2625.451959524248 8.759958064276702 L 2950.451959524248 8.759958064276702 L 2950.451959524248 8.759958064276702 A 8 8 0 0 1 2958.451959524248 16.759958064276702 L 2958.451959524248 329.75995877953244 L 2958.451959524248 329.75995877953244 A 8 8 0 0 1 2950.451959524248 337.75995877953244 L 2300.451959524248 337.75995877953244 L 2300.451959524248 337.75995877953244 A 8 8 0 0 1 2292.451959524248 329.75995877953244 L 2292.451959524248 16.759958064276702 L 2292.451959524248 16.759958064276702 A 8 8 0 0 1 2300.451959524248 8.759958064276702 L 2625.451959524248 8.759958064276702 Z" fill-opacity="1" stroke-opacity="1" stroke-miterlimit="10" stroke-width="5"/><rect fill="rgb(255,255,255)" stroke="none" x="2454.951959524248" y="-40.2400419357233" width="341" height="96" fill-opacity="1"/><text fill="rgb(0,0,0)" stroke="none" font-family="Avenir, Helvetica, Arial, sans-serif" font-size="32px" font-style="normal" font-weight="bold" text-decoration="normal" x="2625.451959524248" y="23.759958064276702" text-anchor="middle" dominant-baseline="text-after-edge" fill-opacity="1">yandex_ydb_table</text><path fill="rgb(255,255,255)" stroke="rgb(0,0,0)" paint-order="fill stroke markers" d=" M 1825.8297175405269 1242.3146220227868 L 2150.829717540527 1242.3146220227868 L 2150.829717540527 1242.3146220227868 A 8 8 0 0 1 2158.829717540527 1250.3146220227868 L 2158.829717540527 1829.314624168554 L 2158.829717540527 1829.314624168554 A 8 8 0 0 1 2150.829717540527 1837.314624168554 L 1500.8297175405269 1837.314624168554 L 1500.8297175405269 1837.314624168554 A 8 8 0 0 1 1492.8297175405269 1829.314624168554 L 1492.8297175405269 1250.3146220227868 L 1492.8297175405269 1250.3146220227868 A 8 8 0 0 1 1500.8297175405269 1242.3146220227868 L 1825.8297175405269 1242.3146220227868 Z" fill-opacity="1" stroke-opacity="1" stroke-miterlimit="10" stroke-width="5"/><rect fill="rgb(255,255,255)" stroke="none" x="1567.8297175405269" y="1193.3146220227868" width="516" height="96" fill-opacity="1"/><text fill="rgb(0,0,0)" stroke="none" font-family="Avenir, Helvetica, Arial, sans-serif" font-size="32px" font-style="normal" font-weight="bold" text-decoration="normal" x="1825.8297175405269" y="1257.3146220227868" text-anchor="middle" dominant-baseline="text-after-edge" fill-opacity="1">yandex_iam_service_account</text><path fill="rgb(255,255,255)" stroke="rgb(0,0,0)" paint-order="fill stroke markers" d=" M 1019.0519580937346 1074.1599616405547 L 1344.0519580937346 1074.1599616405547 L 1344.0519580937346 1074.1599616405547 A 8 8 0 0 1 1352.0519580937346 1082.1599616405547 L 1352.0519580937346 1528.1599630710662 L 1352.0519580937346 1528.1599630710662 A 8 8 0 0 1 1344.0519580937346 1536.1599630710662 L 694.0519580937346 1536.1599630710662 L 694.0519580937346 1536.1599630710662 A 8 8 0 0 1 686.0519580937346 1528.1599630710662 L 686.0519580937346 1082.1599616405547 L 686.0519580937346 1082.1599616405547 A 8 8 0 0 1 694.0519580937346 1074.1599616405547 L 1019.0519580937346 1074.1599616405547 Z" fill-opacity="1" stroke-opacity="1" stroke-miterlimit="10" stroke-width="5"/><rect fill="rgb(255,255,255)" stroke="none" x="899.0519580937346" y="1025.1599616405547" width="240" height="96" fill-opacity="1"/><text fill="rgb(0,0,0)" stroke="none" font-family="Avenir, Helvetica, Arial, sans-serif" font-size="32px" font-style="normal" font-weight="bold" text-decoration="normal" x="1019.0519580937346" y="1089.1599616405547" text-anchor="middle" dominant-baseline="text-after-edge" fill-opacity="1">archive_file</text><path fill="rgb(255,255,255)" stroke="rgb(0,0,0)" paint-order="fill stroke markers" d=" M 1019.0519580937346 474.9599594947882 L 1344.0519580937346 474.9599594947882 L 1344.0519580937346 474.9599594947882 A 8 8 0 0 1 1352.0519580937346 482.9599594947882 L 1352.0519580937346 795.959960210044 L 1352.0519580937346 795.959960210044 A 8 8 0 0 1 1344.0519580937346 803.959960210044 L 694.0519580937346 803.959960210044 L 694.0519580937346 803.959960210044 A 8 8 0 0 1 686.0519580937346 795.959960210044 L 686.0519580937346 482.9599594947882 L 686.0519580937346 482.9599594947882 A 8 8 0 0 1 694.0519580937346 474.9599594947882 L 1019.0519580937346 474.9599594947882 Z" fill-opacity="1" stroke-opacity="1" stroke-miterlimit="10" stroke-width="5"/><rect fill="rgb(255,255,255)" stroke="none" x="800.5519580937346" y="425.9599594947882" width="437" height="96" fill-opacity="1"/><text fill="rgb(0,0,0)" stroke="none" font-family="Avenir, Helvetica, Arial, sans-serif" font-size="32px" font-style="normal" font-weight="bold" text-decoration="normal" x="1019.0519580937346" y="489.9599594947882" text-anchor="middle" dominant-baseline="text-after-edge" fill-opacity="1">yandex_function_trigger</text><path fill="rgb(255,255,255)" stroke="rgb(0,0,0)" paint-order="fill stroke markers" d=" M 1822.2519588089904 8.759958064276702 L 2147.2519588089904 8.759958064276702 L 2147.2519588089904 8.759958064276702 A 8 8 0 0 1 2155.2519588089904 16.759958064276702 L 2155.2519588089904 196.7599580642767 L 2155.2519588089904 196.7599580642767 A 8 8 0 0 1 2147.2519588089904 204.7599580642767 L 1497.2519588089904 204.7599580642767 L 1497.2519588089904 204.7599580642767 A 8 8 0 0 1 1489.2519588089904 196.7599580642767 L 1489.2519588089904 16.759958064276702 L 1489.2519588089904 16.759958064276702 A 8 8 0 0 1 1497.2519588089904 8.759958064276702 L 1822.2519588089904 8.759958064276702 Z" fill-opacity="1" stroke-opacity="1" stroke-miterlimit="10" stroke-width="5"/><rect fill="rgb(255,255,255)" stroke="none" x="1531.2519588089904" y="-40.2400419357233" width="582" height="96" fill-opacity="1"/><text fill="rgb(0,0,0)" stroke="none" font-family="Avenir, Helvetica, Arial, sans-serif" font-size="32px" font-style="normal" font-weight="bold" text-decoration="normal" x="1822.2519588089904" y="23.759958064276702" text-anchor="middle" dominant-baseline="text-after-edge" fill-opacity="1">yandex_ydb_database_serverless</text><path fill="none" stroke="url(#vsTvNXUTfcDH)" paint-order="fill stroke markers" d=" M 2625.451959524248 1213.6599616405556 L 2625.451959524248 1455.7372929045548 L 1825.829717540527 1455.7372929045548 L 1825.829717540527 1697.814624168554" stroke-linejoin="round" stroke-miterlimit="10" stroke-width="10"/><path fill="none" stroke="url(#weNJXWZzeIkx)" paint-order="fill stroke markers" d=" M 2348.951959524248 1305.1599623558113 L 2225.6408385323875 1305.1599623558113 L 2225.6408385323875 1606.3146234532983 L 2102.329717540527 1606.3146234532983" stroke-linejoin="round" stroke-miterlimit="10" stroke-width="10"/><path fill="none" stroke="url(#pKqaQHcaPxnT)" paint-order="fill stroke markers" d=" M 2348.951959524248 106.7599580642767 L 2223.851959166619 106.7599580642767 L 2223.851959166619 106.7599580642767 L 2098.7519588089904 106.7599580642767" stroke-linejoin="round" stroke-miterlimit="10" stroke-width="10"/><path fill="none" stroke="url(#NhDpGpnEEmtO)" paint-order="fill stroke markers" d=" M 2348.951959524248 1438.159963071067 L 2225.6408385323875 1438.159963071067 L 2225.6408385323875 1340.3146220227868 L 2102.329717540527 1340.3146220227868" stroke-linejoin="round" stroke-miterlimit="10" stroke-width="10"/><path fill="none" stroke="url(#kSSurKpJybUx)" paint-order="fill stroke markers" d=" M 2348.951959524248 1571.1599637863228 L 2225.6408385323875 1571.1599637863228 L 2225.6408385323875 1473.3146227380425 L 2102.329717540527 1473.3146227380425" stroke-linejoin="round" stroke-miterlimit="10" stroke-width="10"/><path fill="none" stroke="url(#zhItUsuUDRNn)" paint-order="fill stroke markers" d=" M 2348.951959524248 239.75995877953244 L 2223.851959166619 239.75995877953244 L 2223.851959166619 106.7599580642767 L 2098.7519588089904 106.7599580642767" stroke-linejoin="round" stroke-miterlimit="10" stroke-width="10"/><path fill="none" stroke="url(#ZVprBXSlJXpR)" paint-order="fill stroke markers" d=" M 2625.451959524248 747.459960210044 L 2625.451959524248 1156.137291831671 L 1825.829717540527 1156.137291831671 L 1825.829717540527 1564.8146234532983" stroke-linejoin="round" stroke-miterlimit="10" stroke-width="10"/><path fill="none" stroke="url(#giiQiowxrzaW)" paint-order="fill stroke markers" d=" M 2625.451959524248 880.4599609252997 L 2625.451959524248 1089.6372914740432 L 1825.829717540527 1089.6372914740432 L 1825.829717540527 1298.8146220227868" stroke-linejoin="round" stroke-miterlimit="10" stroke-width="10"/><path fill="none" stroke="url(#owARyoqSdQtJ)" paint-order="fill stroke markers" d=" M 1545.7519588089904 838.9599609252997 L 1019.1519580937347 838.9599609252997 L 1019.1519580937347 -93.2400419357233 L 492.55195737847885 -93.2400419357233" stroke-linejoin="round" stroke-miterlimit="10" stroke-width="10"/><path fill="none" stroke="url(#TWapJErplcSk)" paint-order="fill stroke markers" d=" M 1822.2519588089904 797.4599609252997 L 1822.2519588089904 472.8599594947882 L 1822.2519588089904 472.8599594947882 L 1822.2519588089904 148.2599580642767" stroke-linejoin="round" stroke-miterlimit="10" stroke-width="10"/><path fill="none" stroke="url(#dLonTBkWoQIM)" paint-order="fill stroke markers" d=" M 2098.7519588089904 838.9599609252997 L 2223.851959166619 838.9599609252997 L 2223.851959166619 838.9599609252997 L 2348.951959524248 838.9599609252997" stroke-linejoin="round" stroke-miterlimit="10" stroke-width="10"/><path fill="none" stroke="url(#rUKtGCXqGFET)" paint-order="fill stroke markers" d=" M 1822.2519588089904 880.4599609252997 L 1822.2519588089904 1089.6372914740432 L 1825.829717540527 1089.6372914740432 L 1825.829717540527 1298.8146220227868" stroke-linejoin="round" stroke-miterlimit="10" stroke-width="10"/><path fill="none" stroke="url(#OEgAEvbmgPUv)" paint-order="fill stroke markers" d=" M 1822.2519588089904 747.4599602100441 L 1822.2519588089904 1222.637292189299 L 1825.829717540527 1222.637292189299 L 1825.829717540527 1697.814624168554" stroke-linejoin="round" stroke-miterlimit="10" stroke-width="10"/><path fill="none" stroke="url(#UWOzItiAiaNI)" paint-order="fill stroke markers" d=" M 1545.7519588089904 705.959960210044 L 1019.1519580937347 705.959960210044 L 1019.1519580937347 -93.2400419357233 L 492.55195737847885 -93.2400419357233" stroke-linejoin="round" stroke-miterlimit="10" stroke-width="10"/><path fill="none" stroke="url(#HfKgOSOhDnnz)" paint-order="fill stroke markers" d=" M 1822.2519588089904 664.459960210044 L 1822.2519588089904 406.35995913716033 L 1822.2519588089904 406.35995913716033 L 1822.2519588089904 148.2599580642767" stroke-linejoin="round" stroke-miterlimit="10" stroke-width="10"/><path fill="none" stroke="url(#OXnMRncpKeNa)" paint-order="fill stroke markers" d=" M 2098.7519588089904 705.959960210044 L 2223.851959166619 705.959960210044 L 2223.851959166619 572.9599594947882 L 2348.951959524248 572.9599594947882" stroke-linejoin="round" stroke-miterlimit="10" stroke-width="10"/><path fill="none" stroke="url(#sKxluyQkuTTJ)" paint-order="fill stroke markers" d=" M 2348.951959524248 1837.159965216834 L 2225.6408385323875 1837.159965216834 L 2225.6408385323875 1739.314624168554 L 2102.329717540527 1739.314624168554" stroke-linejoin="round" stroke-miterlimit="10" stroke-width="10"/><path fill="none" stroke="url(#BBlUBSuSELJG)" paint-order="fill stroke markers" d=" M 1545.7519588089904 106.7599580642767 L 1019.1519580937347 106.7599580642767 L 1019.1519580937347 -93.2400419357233 L 492.55195737847885 -93.2400419357233" stroke-linejoin="round" stroke-miterlimit="10" stroke-width="10"/><path fill="none" stroke="url(#RCHkfCDVaLRk)" paint-order="fill stroke markers" d=" M 1822.2519588089904 614.4599594947883 L 1822.2519588089904 1089.6372914740432 L 1825.829717540527 1089.6372914740432 L 1825.829717540527 1564.8146234532983" stroke-linejoin="round" stroke-miterlimit="10" stroke-width="10"/><path fill="none" stroke="url(#ppgUEFxrueGa)" paint-order="fill stroke markers" d=" M 1545.7519588089904 572.9599594947882 L 1019.1519580937347 572.9599594947882 L 1019.1519580937347 -93.2400419357233 L 492.55195737847885 -93.2400419357233" stroke-linejoin="round" stroke-miterlimit="10" stroke-width="10"/><path fill="none" stroke="url(#CnRFMFwHHCzh)" paint-order="fill stroke markers" d=" M 1822.2519588089904 531.4599594947882 L 1822.2519588089904 339.85995877953246 L 1822.2519588089904 339.85995877953246 L 1822.2519588089904 148.2599580642767" stroke-linejoin="round" stroke-miterlimit="10" stroke-width="10"/><path fill="none" stroke="url(#HuqHAQnAUbMv)" paint-order="fill stroke markers" d=" M 2098.7519588089904 572.9599594947882 L 2223.851959166619 572.9599594947882 L 2223.851959166619 705.959960210044 L 2348.951959524248 705.959960210044" stroke-linejoin="round" stroke-miterlimit="10" stroke-width="10"/><path fill="none" stroke="url(#piGcLPgoTMJi)" paint-order="fill stroke markers" d=" M 2625.451959524248 614.4599594947882 L 2625.451959524248 1156.137291831671 L 1825.829717540527 1156.137291831671 L 1825.829717540527 1697.814624168554" stroke-linejoin="round" stroke-miterlimit="10" stroke-width="10"/><path fill="none" stroke="url(#biTHlqMTdJLA)" paint-order="fill stroke markers" d=" M 742.5519580937346 106.7599580642767 L 617.5519577361067 106.7599580642767 L 617.5519577361067 -93.2400419357233 L 492.55195737847885 -93.2400419357233" stroke-linejoin="round" stroke-miterlimit="10" stroke-width="10"/><path fill="rgb(255,255,255)" stroke="rgb(211,211,211)" paint-order="fill stroke markers" d=" M 1822.2519588089904 533.9599594947882 L 2088.2519588089904 533.9599594947882 L 2088.2519588089904 533.9599594947882 A 8 8 0 0 1 2096.2519588089904 541.9599594947882 L 2096.2519588089904 603.9599594947882 L 2096.2519588089904 603.9599594947882 A 8 8 0 0 1 2088.2519588089904 611.9599594947882 L 1556.2519588089904 611.9599594947882 L 1556.2519588089904 611.9599594947882 A 8 8 0 0 1 1548.2519588089904 603.9599594947882 L 1548.2519588089904 541.9599594947882 L 1548.2519588089904 541.9599594947882 A 8 8 0 0 1 1556.2519588089904 533.9599594947882 L 1822.2519588089904 533.9599594947882 Z" fill-opacity="1" stroke-opacity="1" stroke-miterlimit="10" stroke-width="5"/><text fill="rgb(0,0,0)" stroke="none" font-family="Avenir, Helvetica, Arial, sans-serif" font-size="32px" font-style="normal" font-weight="bold" text-decoration="normal" x="1822.2519588089904" y="588.9599594947882" text-anchor="middle" dominant-baseline="text-after-edge" fill-opacity="1">reminder_fn</text><path fill="rgb(255,255,255)" stroke="rgb(211,211,211)" paint-order="fill stroke markers" d=" M 2625.451959524248 533.9599594947882 L 2891.451959524248 533.9599594947882 L 2891.451959524248 533.9599594947882 A 8 8 0 0 1 2899.451959524248 541.9599594947882 L 2899.451959524248 603.9599594947882 L 2899.451959524248 603.9599594947882 A 8 8 0 0 1 2891.451959524248 611.9599594947882 L 2359.451959524248 611.9599594947882 L 2359.451959524248 611.9599594947882 A 8 8 0 0 1 2351.451959524248 603.9599594947882 L 2351.451959524248 541.9599594947882 L 2351.451959524248 541.9599594947882 A 8 8 0 0 1 2359.451959524248 533.9599594947882 L 2625.451959524248 533.9599594947882 Z" fill-opacity="1" stroke-opacity="1" stroke-miterlimit="10" stroke-width="5"/><text fill="rgb(0,0,0)" stroke="none" font-family="Avenir, Helvetica, Arial, sans-serif" font-size="32px" font-style="normal" font-weight="bold" text-decoration="normal" x="2625.451959524248" y="588.9599594947882" text-anchor="middle" dominant-baseline="text-after-edge" fill-opacity="1">loader_sa_keys</text><path fill="rgb(255,255,255)" stroke="rgb(211,211,211)" paint-order="fill stroke markers" d=" M 1019.0519580937346 67.7599580642767 L 1285.0519580937346 67.7599580642767 L 1285.0519580937346 67.7599580642767 A 8 8 0 0 1 1293.0519580937346 75.7599580642767 L 1293.0519580937346 137.7599580642767 L 1293.0519580937346 137.7599580642767 A 8 8 0 0 1 1285.0519580937346 145.7599580642767 L 753.0519580937346 145.7599580642767 L 753.0519580937346 145.7599580642767 A 8 8 0 0 1 745.0519580937346 137.7599580642767 L 745.0519580937346 75.7599580642767 L 745.0519580937346 75.7599580642767 A 8 8 0 0 1 753.0519580937346 67.7599580642767 L 1019.0519580937346 67.7599580642767 Z" fill-opacity="1" stroke-opacity="1" stroke-miterlimit="10" stroke-width="5"/><text fill="rgb(0,0,0)" stroke="none" font-family="Avenir, Helvetica, Arial, sans-serif" font-size="32px" font-style="normal" font-weight="bold" text-decoration="normal" x="1019.0519580937346" y="122.7599580642767" text-anchor="middle" dominant-baseline="text-after-edge" fill-opacity="1">bucket</text><path fill="rgb(255,255,255)" stroke="rgb(211,211,211)" paint-order="fill stroke markers" d=" M 2625.451959524248 1133.1599616405556 L 2891.451959524248 1133.1599616405556 L 2891.451959524248 1133.1599616405556 A 8 8 0 0 1 2899.451959524248 1141.1599616405556 L 2899.451959524248 1203.1599616405556 L 2899.451959524248 1203.1599616405556 A 8 8 0 0 1 2891.451959524248 1211.1599616405556 L 2359.451959524248 1211.1599616405556 L 2359.451959524248 1211.1599616405556 A 8 8 0 0 1 2351.451959524248 1203.1599616405556 L 2351.451959524248 1141.1599616405556 L 2351.451959524248 1141.1599616405556 A 8 8 0 0 1 2359.451959524248 1133.1599616405556 L 2625.451959524248 1133.1599616405556 Z" fill-opacity="1" stroke-opacity="1" stroke-miterlimit="10" stroke-width="5"/><text fill="rgb(0,0,0)" stroke="none" font-family="Avenir, Helvetica, Arial, sans-serif" font-size="32px" font-style="normal" font-weight="bold" text-decoration="normal" x="2625.451959524248" y="1188.1599616405556" text-anchor="middle" dominant-baseline="text-after-edge" fill-opacity="1">loader_sa_ydb</text><path fill="rgb(255,255,255)" stroke="rgb(211,211,211)" paint-order="fill stroke markers" d=" M 2625.451959524248 1266.1599623558113 L 2891.451959524248 1266.1599623558113 L 2891.451959524248 1266.1599623558113 A 8 8 0 0 1 2899.451959524248 1274.1599623558113 L 2899.451959524248 1336.1599623558113 L 2899.451959524248 1336.1599623558113 A 8 8 0 0 1 2891.451959524248 1344.1599623558113 L 2359.451959524248 1344.1599623558113 L 2359.451959524248 1344.1599623558113 A 8 8 0 0 1 2351.451959524248 1336.1599623558113 L 2351.451959524248 1274.1599623558113 L 2351.451959524248 1274.1599623558113 A 8 8 0 0 1 2359.451959524248 1266.1599623558113 L 2625.451959524248 1266.1599623558113 Z" fill-opacity="1" stroke-opacity="1" stroke-miterlimit="10" stroke-width="5"/><text fill="rgb(0,0,0)" stroke="none" font-family="Avenir, Helvetica, Arial, sans-serif" font-size="32px" font-style="normal" font-weight="bold" text-decoration="normal" x="2625.451959524248" y="1321.1599623558113" text-anchor="middle" dominant-baseline="text-after-edge" fill-opacity="1">reminder_sa_ydb</text><path fill="rgb(255,255,255)" stroke="rgb(211,211,211)" paint-order="fill stroke markers" d=" M 2625.451959524248 67.7599580642767 L 2891.451959524248 67.7599580642767 L 2891.451959524248 67.7599580642767 A 8 8 0 0 1 2899.451959524248 75.7599580642767 L 2899.451959524248 137.7599580642767 L 2899.451959524248 137.7599580642767 A 8 8 0 0 1 2891.451959524248 145.7599580642767 L 2359.451959524248 145.7599580642767 L 2359.451959524248 145.7599580642767 A 8 8 0 0 1 2351.451959524248 137.7599580642767 L 2351.451959524248 75.7599580642767 L 2351.451959524248 75.7599580642767 A 8 8 0 0 1 2359.451959524248 67.7599580642767 L 2625.451959524248 67.7599580642767 Z" fill-opacity="1" stroke-opacity="1" stroke-miterlimit="10" stroke-width="5"/><text fill="rgb(0,0,0)" stroke="none" font-family="Avenir, Helvetica, Arial, sans-serif" font-size="32px" font-style="normal" font-weight="bold" text-decoration="normal" x="2625.451959524248" y="122.7599580642767" text-anchor="middle" dominant-baseline="text-after-edge" fill-opacity="1">ydb_table_prayers</text><path fill="rgb(255,255,255)" stroke="rgb(211,211,211)" paint-order="fill stroke markers" d=" M 1825.829717540527 1301.3146220227868 L 2091.829717540527 1301.3146220227868 L 2091.829717540527 1301.3146220227868 A 8 8 0 0 1 2099.829717540527 1309.3146220227868 L 2099.829717540527 1371.3146220227868 L 2099.829717540527 1371.3146220227868 A 8 8 0 0 1 2091.829717540527 1379.3146220227868 L 1559.829717540527 1379.3146220227868 L 1559.829717540527 1379.3146220227868 A 8 8 0 0 1 1551.829717540527 1371.3146220227868 L 1551.829717540527 1309.3146220227868 L 1551.829717540527 1309.3146220227868 A 8 8 0 0 1 1559.829717540527 1301.3146220227868 L 1825.829717540527 1301.3146220227868 Z" fill-opacity="1" stroke-opacity="1" stroke-miterlimit="10" stroke-width="5"/><text fill="rgb(0,0,0)" stroke="none" font-family="Avenir, Helvetica, Arial, sans-serif" font-size="32px" font-style="normal" font-weight="bold" text-decoration="normal" x="1825.829717540527" y="1356.3146220227868" text-anchor="middle" dominant-baseline="text-after-edge" fill-opacity="1">dispatcher_sa</text><path fill="rgb(255,255,255)" stroke="rgb(211,211,211)" paint-order="fill stroke markers" d=" M 1825.829717540527 1434.3146227380425 L 2091.829717540527 1434.3146227380425 L 2091.829717540527 1434.3146227380425 A 8 8 0 0 1 2099.829717540527 1442.3146227380425 L 2099.829717540527 1504.3146227380425 L 2099.829717540527 1504.3146227380425 A 8 8 0 0 1 2091.829717540527 1512.3146227380425 L 1559.829717540527 1512.3146227380425 L 1559.829717540527 1512.3146227380425 A 8 8 0 0 1 1551.829717540527 1504.3146227380425 L 1551.829717540527 1442.3146227380425 L 1551.829717540527 1442.3146227380425 A 8 8 0 0 1 1559.829717540527 1434.3146227380425 L 1825.829717540527 1434.3146227380425 Z" fill-opacity="1" stroke-opacity="1" stroke-miterlimit="10" stroke-width="5"/><text fill="rgb(0,0,0)" stroke="none" font-family="Avenir, Helvetica, Arial, sans-serif" font-size="32px" font-style="normal" font-weight="bold" text-decoration="normal" x="1825.829717540527" y="1489.3146227380425" text-anchor="middle" dominant-baseline="text-after-edge" fill-opacity="1">trigger_sa</text><path fill="rgb(255,255,255)" stroke="rgb(211,211,211)" paint-order="fill stroke markers" d=" M 2625.451959524248 1399.159963071067 L 2891.451959524248 1399.159963071067 L 2891.451959524248 1399.159963071067 A 8 8 0 0 1 2899.451959524248 1407.159963071067 L 2899.451959524248 1469.159963071067 L 2899.451959524248 1469.159963071067 A 8 8 0 0 1 2891.451959524248 1477.159963071067 L 2359.451959524248 1477.159963071067 L 2359.451959524248 1477.159963071067 A 8 8 0 0 1 2351.451959524248 1469.159963071067 L 2351.451959524248 1407.159963071067 L 2351.451959524248 1407.159963071067 A 8 8 0 0 1 2359.451959524248 1399.159963071067 L 2625.451959524248 1399.159963071067 Z" fill-opacity="1" stroke-opacity="1" stroke-miterlimit="10" stroke-width="5"/><text fill="rgb(0,0,0)" stroke="none" font-family="Avenir, Helvetica, Arial, sans-serif" font-size="32px" font-style="normal" font-weight="bold" text-decoration="normal" x="2625.451959524248" y="1454.159963071067" text-anchor="middle" dominant-baseline="text-after-edge" fill-opacity="1">dispatcher_sa_ydb</text><path fill="rgb(255,255,255)" stroke="rgb(211,211,211)" paint-order="fill stroke markers" d=" M 2625.451959524248 1532.1599637863228 L 2891.451959524248 1532.1599637863228 L 2891.451959524248 1532.1599637863228 A 8 8 0 0 1 2899.451959524248 1540.1599637863228 L 2899.451959524248 1602.1599637863228 L 2899.451959524248 1602.1599637863228 A 8 8 0 0 1 2891.451959524248 1610.1599637863228 L 2359.451959524248 1610.1599637863228 L 2359.451959524248 1610.1599637863228 A 8 8 0 0 1 2351.451959524248 1602.1599637863228 L 2351.451959524248 1540.1599637863228 L 2351.451959524248 1540.1599637863228 A 8 8 0 0 1 2359.451959524248 1532.1599637863228 L 2625.451959524248 1532.1599637863228 Z" fill-opacity="1" stroke-opacity="1" stroke-miterlimit="10" stroke-width="5"/><text fill="rgb(0,0,0)" stroke="none" font-family="Avenir, Helvetica, Arial, sans-serif" font-size="32px" font-style="normal" font-weight="bold" text-decoration="normal" x="2625.451959524248" y="1587.1599637863228" text-anchor="middle" dominant-baseline="text-after-edge" fill-opacity="1">trigger_sa_invoker</text><path fill="rgb(255,255,255)" stroke="rgb(211,211,211)" paint-order="fill stroke markers" d=" M 1825.829717540527 1567.3146234532983 L 2091.829717540527 1567.3146234532983 L 2091.829717540527 1567.3146234532983 A 8 8 0 0 1 2099.829717540527 1575.3146234532983 L 2099.829717540527 1637.3146234532983 L 2099.829717540527 1637.3146234532983 A 8 8 0 0 1 2091.829717540527 1645.3146234532983 L 1559.829717540527 1645.3146234532983 L 1559.829717540527 1645.3146234532983 A 8 8 0 0 1 1551.829717540527 1637.3146234532983 L 1551.829717540527 1575.3146234532983 L 1551.829717540527 1575.3146234532983 A 8 8 0 0 1 1559.829717540527 1567.3146234532983 L 1825.829717540527 1567.3146234532983 Z" fill-opacity="1" stroke-opacity="1" stroke-miterlimit="10" stroke-width="5"/><text fill="rgb(0,0,0)" stroke="none" font-family="Avenir, Helvetica, Arial, sans-serif" font-size="32px" font-style="normal" font-weight="bold" text-decoration="normal" x="1825.829717540527" y="1622.3146234532983" text-anchor="middle" dominant-baseline="text-after-edge" fill-opacity="1">reminder_sa</text><path fill="rgb(255,255,255)" stroke="rgb(211,211,211)" paint-order="fill stroke markers" d=" M 2625.451959524248 666.959960210044 L 2891.451959524248 666.959960210044 L 2891.451959524248 666.959960210044 A 8 8 0 0 1 2899.451959524248 674.959960210044 L 2899.451959524248 736.959960210044 L 2899.451959524248 736.959960210044 A 8 8 0 0 1 2891.451959524248 744.959960210044 L 2359.451959524248 744.959960210044 L 2359.451959524248 744.959960210044 A 8 8 0 0 1 2351.451959524248 736.959960210044 L 2351.451959524248 674.959960210044 L 2351.451959524248 674.959960210044 A 8 8 0 0 1 2359.451959524248 666.959960210044 L 2625.451959524248 666.959960210044 Z" fill-opacity="1" stroke-opacity="1" stroke-miterlimit="10" stroke-width="5"/><text fill="rgb(0,0,0)" stroke="none" font-family="Avenir, Helvetica, Arial, sans-serif" font-size="32px" font-style="normal" font-weight="bold" text-decoration="normal" x="2625.451959524248" y="721.959960210044" text-anchor="middle" dominant-baseline="text-after-edge" fill-opacity="1">reminder_sa_keys</text><path fill="rgb(255,255,255)" stroke="rgb(211,211,211)" paint-order="fill stroke markers" d=" M 2625.451959524248 1665.1599645015785 L 2891.451959524248 1665.1599645015785 L 2891.451959524248 1665.1599645015785 A 8 8 0 0 1 2899.451959524248 1673.1599645015785 L 2899.451959524248 1735.1599645015785 L 2899.451959524248 1735.1599645015785 A 8 8 0 0 1 2891.451959524248 1743.1599645015785 L 2359.451959524248 1743.1599645015785 L 2359.451959524248 1743.1599645015785 A 8 8 0 0 1 2351.451959524248 1735.1599645015785 L 2351.451959524248 1673.1599645015785 L 2351.451959524248 1673.1599645015785 A 8 8 0 0 1 2359.451959524248 1665.1599645015785 L 2625.451959524248 1665.1599645015785 Z" fill-opacity="1" stroke-opacity="1" stroke-miterlimit="10" stroke-width="5"/><text fill="rgb(0,0,0)" stroke="none" font-family="Avenir, Helvetica, Arial, sans-serif" font-size="32px" font-style="normal" font-weight="bold" text-decoration="normal" x="2625.451959524248" y="1720.1599645015785" text-anchor="middle" dominant-baseline="text-after-edge" fill-opacity="1">dispatcher_sa_invoker</text><path fill="rgb(255,255,255)" stroke="rgb(211,211,211)" paint-order="fill stroke markers" d=" M 2625.451959524248 799.9599609252997 L 2891.451959524248 799.9599609252997 L 2891.451959524248 799.9599609252997 A 8 8 0 0 1 2899.451959524248 807.9599609252997 L 2899.451959524248 869.9599609252997 L 2899.451959524248 869.9599609252997 A 8 8 0 0 1 2891.451959524248 877.9599609252997 L 2359.451959524248 877.9599609252997 L 2359.451959524248 877.9599609252997 A 8 8 0 0 1 2351.451959524248 869.9599609252997 L 2351.451959524248 807.9599609252997 L 2351.451959524248 807.9599609252997 A 8 8 0 0 1 2359.451959524248 799.9599609252997 L 2625.451959524248 799.9599609252997 Z" fill-opacity="1" stroke-opacity="1" stroke-miterlimit="10" stroke-width="5"/><text fill="rgb(0,0,0)" stroke="none" font-family="Avenir, Helvetica, Arial, sans-serif" font-size="32px" font-style="normal" font-weight="bold" text-decoration="normal" x="2625.451959524248" y="854.9599609252997" text-anchor="middle" dominant-baseline="text-after-edge" fill-opacity="1">dispatcher_sa_keys</text><path fill="rgb(255,236,236)" stroke="rgb(220,71,125)" paint-order="fill stroke markers" d=" M 1019.0519580937346 1133.1599616405547 L 1285.0519580937346 1133.1599616405547 L 1285.0519580937346 1133.1599616405547 A 8 8 0 0 1 1293.0519580937346 1141.1599616405547 L 1293.0519580937346 1203.1599616405547 L 1293.0519580937346 1203.1599616405547 A 8 8 0 0 1 1285.0519580937346 1211.1599616405547 L 753.0519580937346 1211.1599616405547 L 753.0519580937346 1211.1599616405547 A 8 8 0 0 1 745.0519580937346 1203.1599616405547 L 745.0519580937346 1141.1599616405547 L 745.0519580937346 1141.1599616405547 A 8 8 0 0 1 753.0519580937346 1133.1599616405547 L 1019.0519580937346 1133.1599616405547 Z" fill-opacity="1" stroke-opacity="1" stroke-miterlimit="10" stroke-width="5"/><text fill="rgb(0,0,0)" stroke="none" font-family="Avenir, Helvetica, Arial, sans-serif" font-size="32px" font-style="normal" font-weight="bold" text-decoration="normal" x="1019.0519580937346" y="1188.1599616405547" text-anchor="middle" dominant-baseline="text-after-edge" fill-opacity="1">dispatcher_zip</text><path fill="rgb(255,236,236)" stroke="rgb(220,71,125)" paint-order="fill stroke markers" d=" M 1019.0519580937346 1266.1599623558104 L 1285.0519580937346 1266.1599623558104 L 1285.0519580937346 1266.1599623558104 A 8 8 0 0 1 1293.0519580937346 1274.1599623558104 L 1293.0519580937346 1336.1599623558104 L 1293.0519580937346 1336.1599623558104 A 8 8 0 0 1 1285.0519580937346 1344.1599623558104 L 753.0519580937346 1344.1599623558104 L 753.0519580937346 1344.1599623558104 A 8 8 0 0 1 745.0519580937346 1336.1599623558104 L 745.0519580937346 1274.1599623558104 L 745.0519580937346 1274.1599623558104 A 8 8 0 0 1 753.0519580937346 1266.1599623558104 L 1019.0519580937346 1266.1599623558104 Z" fill-opacity="1" stroke-opacity="1" stroke-miterlimit="10" stroke-width="5"/><text fill="rgb(0,0,0)" stroke="none" font-family="Avenir, Helvetica, Arial, sans-serif" font-size="32px" font-style="normal" font-weight="bold" text-decoration="normal" x="1019.0519580937346" y="1321.1599623558104" text-anchor="middle" dominant-baseline="text-after-edge" fill-opacity="1">loader_zip</text><path fill="rgb(255,236,236)" stroke="rgb(220,71,125)" paint-order="fill stroke markers" d=" M 1019.0519580937346 1399.1599630710662 L 1285.0519580937346 1399.1599630710662 L 1285.0519580937346 1399.1599630710662 A 8 8 0 0 1 1293.0519580937346 1407.1599630710662 L 1293.0519580937346 1469.1599630710662 L 1293.0519580937346 1469.1599630710662 A 8 8 0 0 1 1285.0519580937346 1477.1599630710662 L 753.0519580937346 1477.1599630710662 L 753.0519580937346 1477.1599630710662 A 8 8 0 0 1 745.0519580937346 1469.1599630710662 L 745.0519580937346 1407.1599630710662 L 745.0519580937346 1407.1599630710662 A 8 8 0 0 1 753.0519580937346 1399.1599630710662 L 1019.0519580937346 1399.1599630710662 Z" fill-opacity="1" stroke-opacity="1" stroke-miterlimit="10" stroke-width="5"/><text fill="rgb(0,0,0)" stroke="none" font-family="Avenir, Helvetica, Arial, sans-serif" font-size="32px" font-style="normal" font-weight="bold" text-decoration="normal" x="1019.0519580937346" y="1454.1599630710662" text-anchor="middle" dominant-baseline="text-after-edge" fill-opacity="1">reminder_zip</text><path fill="rgb(255,255,255)" stroke="rgb(211,211,211)" paint-order="fill stroke markers" d=" M 2625.451959524248 200.75995877953244 L 2891.451959524248 200.75995877953244 L 2891.451959524248 200.75995877953244 A 8 8 0 0 1 2899.451959524248 208.75995877953244 L 2899.451959524248 270.75995877953244 L 2899.451959524248 270.75995877953244 A 8 8 0 0 1 2891.451959524248 278.75995877953244 L 2359.451959524248 278.75995877953244 L 2359.451959524248 278.75995877953244 A 8 8 0 0 1 2351.451959524248 270.75995877953244 L 2351.451959524248 208.75995877953244 L 2351.451959524248 208.75995877953244 A 8 8 0 0 1 2359.451959524248 200.75995877953244 L 2625.451959524248 200.75995877953244 Z" fill-opacity="1" stroke-opacity="1" stroke-miterlimit="10" stroke-width="5"/><text fill="rgb(0,0,0)" stroke="none" font-family="Avenir, Helvetica, Arial, sans-serif" font-size="32px" font-style="normal" font-weight="bold" text-decoration="normal" x="2625.451959524248" y="255.75995877953244" text-anchor="middle" dominant-baseline="text-after-edge" fill-opacity="1">ydb_table_chats</text><path fill="rgb(255,255,255)" stroke="rgb(211,211,211)" paint-order="fill stroke markers" d=" M 1019.0519580937346 533.9599594947882 L 1285.0519580937346 533.9599594947882 L 1285.0519580937346 533.9599594947882 A 8 8 0 0 1 1293.0519580937346 541.9599594947882 L 1293.0519580937346 603.9599594947882 L 1293.0519580937346 603.9599594947882 A 8 8 0 0 1 1285.0519580937346 611.9599594947882 L 753.0519580937346 611.9599594947882 L 753.0519580937346 611.9599594947882 A 8 8 0 0 1 745.0519580937346 603.9599594947882 L 745.0519580937346 541.9599594947882 L 745.0519580937346 541.9599594947882 A 8 8 0 0 1 753.0519580937346 533.9599594947882 L 1019.0519580937346 533.9599594947882 Z" fill-opacity="1" stroke-opacity="1" stroke-miterlimit="10" stroke-width="5"/><text fill="rgb(0,0,0)" stroke="none" font-family="Avenir, Helvetica, Arial, sans-serif" font-size="32px" font-style="normal" font-weight="bold" text-decoration="normal" x="1019.0519580937346" y="588.9599594947882" text-anchor="middle" dominant-baseline="text-after-edge" fill-opacity="1">reminder_trigger</text><path fill="rgb(255,255,255)" stroke="rgb(211,211,211)" paint-order="fill stroke markers" d=" M 1822.2519588089904 666.959960210044 L 2088.2519588089904 666.959960210044 L 2088.2519588089904 666.959960210044 A 8 8 0 0 1 2096.2519588089904 674.959960210044 L 2096.2519588089904 736.959960210044 L 2096.2519588089904 736.959960210044 A 8 8 0 0 1 2088.2519588089904 744.959960210044 L 1556.2519588089904 744.959960210044 L 1556.2519588089904 744.959960210044 A 8 8 0 0 1 1548.2519588089904 736.959960210044 L 1548.2519588089904 674.959960210044 L 1548.2519588089904 674.959960210044 A 8 8 0 0 1 1556.2519588089904 666.959960210044 L 1822.2519588089904 666.959960210044 Z" fill-opacity="1" stroke-opacity="1" stroke-miterlimit="10" stroke-width="5"/><text fill="rgb(0,0,0)" stroke="none" font-family="Avenir, Helvetica, Arial, sans-serif" font-size="32px" font-style="normal" font-weight="bold" text-decoration="normal" x="1822.2519588089904" y="721.959960210044" text-anchor="middle" dominant-baseline="text-after-edge" fill-opacity="1">loader_fn</text><path fill="rgb(255,255,255)" stroke="rgb(211,211,211)" paint-order="fill stroke markers" d=" M 2625.451959524248 1798.159965216834 L 2891.451959524248 1798.159965216834 L 2891.451959524248 1798.159965216834 A 8 8 0 0 1 2899.451959524248 1806.159965216834 L 2899.451959524248 1868.159965216834 L 2899.451959524248 1868.159965216834 A 8 8 0 0 1 2891.451959524248 1876.159965216834 L 2359.451959524248 1876.159965216834 L 2359.451959524248 1876.159965216834 A 8 8 0 0 1 2351.451959524248 1868.159965216834 L 2351.451959524248 1806.159965216834 L 2351.451959524248 1806.159965216834 A 8 8 0 0 1 2359.451959524248 1798.159965216834 L 2625.451959524248 1798.159965216834 Z" fill-opacity="1" stroke-opacity="1" stroke-miterlimit="10" stroke-width="5"/><text fill="rgb(0,0,0)" stroke="none" font-family="Avenir, Helvetica, Arial, sans-serif" font-size="32px" font-style="normal" font-weight="bold" text-decoration="normal" x="2625.451959524248" y="1853.159965216834" text-anchor="middle" dominant-baseline="text-after-edge" fill-opacity="1">loader_sa_storage</text><path fill="rgb(255,255,255)" stroke="rgb(211,211,211)" paint-order="fill stroke markers" d=" M 1019.0519580937346 666.959960210044 L 1285.0519580937346 666.959960210044 L 1285.0519580937346 666.959960210044 A 8 8 0 0 1 1293.0519580937346 674.959960210044 L 1293.0519580937346 736.959960210044 L 1293.0519580937346 736.959960210044 A 8 8 0 0 1 1285.0519580937346 744.959960210044 L 753.0519580937346 744.959960210044 L 753.0519580937346 744.959960210044 A 8 8 0 0 1 745.0519580937346 736.959960210044 L 745.0519580937346 674.959960210044 L 745.0519580937346 674.959960210044 A 8 8 0 0 1 753.0519580937346 666.959960210044 L 1019.0519580937346 666.959960210044 Z" fill-opacity="1" stroke-opacity="1" stroke-miterlimit="10" stroke-width="5"/><text fill="rgb(0,0,0)" stroke="none" font-family="Avenir, Helvetica, Arial, sans-serif" font-size="32px" font-style="normal" font-weight="bold" text-decoration="normal" x="1019.0519580937346" y="721.959960210044" text-anchor="middle" dominant-baseline="text-after-edge" fill-opacity="1">loader_trigger</text><path fill="rgb(255,255,255)" stroke="rgb(211,211,211)" paint-order="fill stroke markers" d=" M 1825.829717540527 1700.314624168554 L 2091.829717540527 1700.314624168554 L 2091.829717540527 1700.314624168554 A 8 8 0 0 1 2099.829717540527 1708.314624168554 L 2099.829717540527 1770.314624168554 L 2099.829717540527 1770.314624168554 A 8 8 0 0 1 2091.829717540527 1778.314624168554 L 1559.829717540527 1778.314624168554 L 1559.829717540527 1778.314624168554 A 8 8 0 0 1 1551.829717540527 1770.314624168554 L 1551.829717540527 1708.314624168554 L 1551.829717540527 1708.314624168554 A 8 8 0 0 1 1559.829717540527 1700.314624168554 L 1825.829717540527 1700.314624168554 Z" fill-opacity="1" stroke-opacity="1" stroke-miterlimit="10" stroke-width="5"/><text fill="rgb(0,0,0)" stroke="none" font-family="Avenir, Helvetica, Arial, sans-serif" font-size="32px" font-style="normal" font-weight="bold" text-decoration="normal" x="1825.829717540527" y="1755.314624168554" text-anchor="middle" dominant-baseline="text-after-edge" fill-opacity="1">loader_sa</text><path fill="rgb(255,255,255)" stroke="rgb(211,211,211)" paint-order="fill stroke markers" d=" M 1822.2519588089904 67.7599580642767 L 2088.2519588089904 67.7599580642767 L 2088.2519588089904 67.7599580642767 A 8 8 0 0 1 2096.2519588089904 75.7599580642767 L 2096.2519588089904 137.7599580642767 L 2096.2519588089904 137.7599580642767 A 8 8 0 0 1 2088.2519588089904 145.7599580642767 L 1556.2519588089904 145.7599580642767 L 1556.2519588089904 145.7599580642767 A 8 8 0 0 1 1548.2519588089904 137.7599580642767 L 1548.2519588089904 75.7599580642767 L 1548.2519588089904 75.7599580642767 A 8 8 0 0 1 1556.2519588089904 67.7599580642767 L 1822.2519588089904 67.7599580642767 Z" fill-opacity="1" stroke-opacity="1" stroke-miterlimit="10" stroke-width="5"/><text fill="rgb(0,0,0)" stroke="none" font-family="Avenir, Helvetica, Arial, sans-serif" font-size="32px" font-style="normal" font-weight="bold" text-decoration="normal" x="1822.2519588089904" y="122.7599580642767" text-anchor="middle" dominant-baseline="text-after-edge" fill-opacity="1">ydb</text><path fill="rgb(255,255,255)" stroke="rgb(211,211,211)" paint-order="fill stroke markers" d=" M 1822.2519588089904 799.9599609252997 L 2088.2519588089904 799.9599609252997 L 2088.2519588089904 799.9599609252997 A 8 8 0 0 1 2096.2519588089904 807.9599609252997 L 2096.2519588089904 869.9599609252997 L 2096.2519588089904 869.9599609252997 A 8 8 0 0 1 2088.2519588089904 877.9599609252997 L 1556.2519588089904 877.9599609252997 L 1556.2519588089904 877.9599609252997 A 8 8 0 0 1 1548.2519588089904 869.9599609252997 L 1548.2519588089904 807.9599609252997 L 1548.2519588089904 807.9599609252997 A 8 8 0 0 1 1556.2519588089904 799.9599609252997 L 1822.2519588089904 799.9599609252997 Z" fill-opacity="1" stroke-opacity="1" stroke-miterlimit="10" stroke-width="5"/><text fill="rgb(0,0,0)" stroke="none" font-family="Avenir, Helvetica, Arial, sans-serif" font-size="32px" font-style="normal" font-weight="bold" text-decoration="normal" x="1822.2519588089904" y="854.9599609252997" text-anchor="middle" dominant-baseline="text-after-edge" fill-opacity="1">dispatcher_fn</text><path fill="rgb(0,0,0)" stroke="rgb(0,0,0)" paint-order="fill stroke markers" d=" M 216.05195737847885 -132.2400419357233 L 482.05195737847885 -132.2400419357233 L 482.05195737847885 -132.2400419357233 A 8 8 0 0 1 490.05195737847885 -124.2400419357233 L 490.05195737847885 -62.2400419357233 L 490.05195737847885 -62.2400419357233 A 8 8 0 0 1 482.05195737847885 -54.2400419357233 L -49.948042621521154 -54.2400419357233 L -49.948042621521154 -54.2400419357233 A 8 8 0 0 1 -57.948042621521154 -62.2400419357233 L -57.948042621521154 -124.2400419357233 L -57.948042621521154 -124.2400419357233 A 8 8 0 0 1 -49.948042621521154 -132.2400419357233 L 216.05195737847885 -132.2400419357233 Z" fill-opacity="1" stroke-opacity="1" stroke-miterlimit="10" stroke-width="5"/><text fill="rgb(255,255,255)" stroke="none" font-family="Avenir, Helvetica, Arial, sans-serif" font-size="32px" font-style="normal" font-weight="bold" text-decoration="normal" x="216.05195737847885" y="-77.2400419357233" text-anchor="middle" dominant-baseline="text-after-edge" fill-opacity="1">terraform.workspace</text><g transform="scale(10,10) translate(-26.344804262152138,-34.37400419357232)"/></g></svg>